<?xml version="1.0" standalone="no"?>
<!DOCTYPE svg PUBLIC "-//W3C//DTD SVG 20010904//EN"
 "http://www.w3.org/TR/2001/REC-SVG-20010904/DTD/svg10.dtd">
<svg version="1.0" xmlns="http://www.w3.org/2000/svg"
 width="700.000000pt" height="700.000000pt" viewBox="0 0 700.000000 700.000000"
 preserveAspectRatio="xMidYMid meet">
<metadata>
Created by potrace 1.14, written by Peter Selinger 2001-2017
</metadata>
<g transform="translate(0.000000,700.000000) scale(0.100000,-0.100000)"
fill="#000000" stroke="none">
<path d="M700 4200 l0 -1400 -350 0 -350 0 0 -175 0 -175 208 -1 c114 0 221
-2 237 -3 94 -8 173 -21 323 -52 54 -11 180 -57 251 -91 111 -54 205 -127 275
-215 40 -50 89 -172 101 -253 1 -5 3 -421 3 -922 l2 -913 350 0 350 0 1 898
c1 493 2 908 3 922 13 128 80 261 180 353 95 89 301 189 451 222 94 20 190 37
240 43 83 10 986 9 1060 -1 501 -67 801 -270 855 -579 6 -35 11 -68 9 -73 -1
-6 -1 -409 0 -897 l1 -888 350 0 350 0 1 908 c0 499 2 914 4 922 1 8 5 32 9
53 14 86 91 217 170 290 64 58 187 132 284 170 71 28 233 70 317 81 28 4 66
10 85 13 59 9 107 11 323 12 l207 1 0 175 0 175 -350 0 -350 0 0 1400 0 1400
-2800 0 -2800 0 0 -1400z"/>
</g>
</svg>
